<mxfile host="app.diagrams.net" agent="Mozilla/5.0 (Windows NT 10.0; Win64; x64; rv:132.0) Gecko/20100101 Firefox/132.0" version="24.8.4">
  <diagram name="Page-1" id="jdG1IzWh8xb3a1KTiut1">
    <mxGraphModel dx="1589" dy="784" grid="1" gridSize="10" guides="1" tooltips="1" connect="1" arrows="1" fold="1" page="1" pageScale="1" pageWidth="850" pageHeight="1100" math="0" shadow="0">
      <root>
        <mxCell id="0" />
        <mxCell id="1" parent="0" />
        <mxCell id="CxOpPzMCJwlfZzr5itkw-13" value="" style="rounded=0;whiteSpace=wrap;html=1;" vertex="1" parent="1">
          <mxGeometry x="230" y="50" width="490" height="560" as="geometry" />
        </mxCell>
        <mxCell id="CxOpPzMCJwlfZzr5itkw-1" value="&lt;div&gt;Add product&amp;nbsp;&lt;/div&gt;&lt;div&gt;to track&lt;/div&gt;" style="ellipse;whiteSpace=wrap;html=1;aspect=fixed;" vertex="1" parent="1">
          <mxGeometry x="518" y="120" width="80" height="80" as="geometry" />
        </mxCell>
        <mxCell id="CxOpPzMCJwlfZzr5itkw-2" value="Force check price" style="ellipse;whiteSpace=wrap;html=1;aspect=fixed;" vertex="1" parent="1">
          <mxGeometry x="521" y="511" width="80" height="80" as="geometry" />
        </mxCell>
        <mxCell id="CxOpPzMCJwlfZzr5itkw-3" value="&lt;div&gt;View tracked products&lt;/div&gt;" style="ellipse;whiteSpace=wrap;html=1;aspect=fixed;" vertex="1" parent="1">
          <mxGeometry x="518" y="230" width="80" height="80" as="geometry" />
        </mxCell>
        <mxCell id="CxOpPzMCJwlfZzr5itkw-4" value="Remove a product" style="ellipse;whiteSpace=wrap;html=1;aspect=fixed;" vertex="1" parent="1">
          <mxGeometry x="518" y="410" width="80" height="80" as="geometry" />
        </mxCell>
        <mxCell id="CxOpPzMCJwlfZzr5itkw-5" value="Run demo to test bot functionality" style="ellipse;whiteSpace=wrap;html=1;aspect=fixed;" vertex="1" parent="1">
          <mxGeometry x="422" y="302" width="80" height="80" as="geometry" />
        </mxCell>
        <mxCell id="CxOpPzMCJwlfZzr5itkw-8" style="rounded=0;orthogonalLoop=1;jettySize=auto;html=1;entryX=0;entryY=0.5;entryDx=0;entryDy=0;endArrow=none;endFill=0;exitX=1;exitY=0.3333333333333333;exitDx=0;exitDy=0;exitPerimeter=0;" edge="1" parent="1" source="CxOpPzMCJwlfZzr5itkw-6">
          <mxGeometry relative="1" as="geometry">
            <mxPoint x="190" y="329.2886297376093" as="sourcePoint" />
            <mxPoint x="518.0000000000002" y="270" as="targetPoint" />
          </mxGeometry>
        </mxCell>
        <mxCell id="CxOpPzMCJwlfZzr5itkw-6" value="User" style="shape=umlActor;verticalLabelPosition=bottom;verticalAlign=top;html=1;outlineConnect=0;" vertex="1" parent="1">
          <mxGeometry x="280" y="302" width="30" height="60" as="geometry" />
        </mxCell>
        <mxCell id="CxOpPzMCJwlfZzr5itkw-7" style="rounded=0;orthogonalLoop=1;jettySize=auto;html=1;entryX=0.026;entryY=0.61;entryDx=0;entryDy=0;entryPerimeter=0;endArrow=none;endFill=0;" edge="1" parent="1" source="CxOpPzMCJwlfZzr5itkw-6" target="CxOpPzMCJwlfZzr5itkw-1">
          <mxGeometry relative="1" as="geometry" />
        </mxCell>
        <mxCell id="CxOpPzMCJwlfZzr5itkw-9" style="rounded=0;orthogonalLoop=1;jettySize=auto;html=1;entryX=0.06;entryY=0.404;entryDx=0;entryDy=0;endArrow=none;endFill=0;entryPerimeter=0;" edge="1" parent="1" target="CxOpPzMCJwlfZzr5itkw-5">
          <mxGeometry relative="1" as="geometry">
            <mxPoint x="310" y="330" as="sourcePoint" />
            <mxPoint x="528" y="280" as="targetPoint" />
          </mxGeometry>
        </mxCell>
        <mxCell id="CxOpPzMCJwlfZzr5itkw-10" style="rounded=0;orthogonalLoop=1;jettySize=auto;html=1;entryX=0.026;entryY=0.304;entryDx=0;entryDy=0;endArrow=none;endFill=0;entryPerimeter=0;" edge="1" parent="1" source="CxOpPzMCJwlfZzr5itkw-6" target="CxOpPzMCJwlfZzr5itkw-4">
          <mxGeometry relative="1" as="geometry">
            <mxPoint x="210" y="349" as="sourcePoint" />
            <mxPoint x="538" y="290" as="targetPoint" />
          </mxGeometry>
        </mxCell>
        <mxCell id="CxOpPzMCJwlfZzr5itkw-11" style="rounded=0;orthogonalLoop=1;jettySize=auto;html=1;entryX=0.031;entryY=0.264;entryDx=0;entryDy=0;endArrow=none;endFill=0;entryPerimeter=0;" edge="1" parent="1" source="CxOpPzMCJwlfZzr5itkw-6" target="CxOpPzMCJwlfZzr5itkw-2">
          <mxGeometry relative="1" as="geometry">
            <mxPoint x="220" y="359" as="sourcePoint" />
            <mxPoint x="548" y="300" as="targetPoint" />
          </mxGeometry>
        </mxCell>
        <mxCell id="CxOpPzMCJwlfZzr5itkw-15" value="Daraz Price Tracker Bot" style="text;html=1;align=center;verticalAlign=middle;whiteSpace=wrap;rounded=0;" vertex="1" parent="1">
          <mxGeometry x="392" y="60" width="150" height="30" as="geometry" />
        </mxCell>
      </root>
    </mxGraphModel>
  </diagram>
</mxfile>
